<svg xmlns="http://www.w3.org/2000/svg" width="828" height="239" viewBox="0 0 828 239">
  <defs>
    <style>
      .cls-1 {
        fill-rule: evenodd;
      }
    </style>
  </defs>
  <path id="Color_Fill_2" data-name="Color Fill 2" class="cls-1" d="M83.158,94.172q-14.966,3.52-22.412,7.561-9.675,5.346-9.675,17.471,0,5.672,5.22,13.429,2.923,4.368,4.107,6a14.892,14.892,0,0,1,2.158,7.04v0.652q0,6.193-11.554,9.909a58.194,58.194,0,0,1-11,2.281L43.9,178q16.147-3.78,23.387-8.344,13.364-8.277,14.477-20.078v-1.3q0-4.758-3.9-13.3A72.292,72.292,0,0,0,73,127.939q-3.2-4.3-3.2-7.171a5.33,5.33,0,0,1,1.183-3.259q3.48-4.432,11.693-6.258a47.914,47.914,0,0,1,7.865-.782Zm50.184,31.681a41.266,41.266,0,0,1-12.6,2.021l-4.8.13q2.088-5.28,2.228-5.606a71.826,71.826,0,0,1,4.176-8.214l-3.968-1.89A44.832,44.832,0,0,1,127.7,110.6h1.462a17.532,17.532,0,0,1,5.638.652q5.915,2.02,5.916,6.193,0,5.671-7.378,8.409h0Zm2.575,12.255q19.071-5.735,21.786-18.969a20.939,20.939,0,0,0,.487-3.977q0-11.08-11.693-15.645a42.688,42.688,0,0,0-9.675-2.8q-1.184-.2-9.466-0.782-2.992-.26-5.359-0.261a181.18,181.18,0,0,0-24.779,2.021l4.107,17.861q1.738-.39,4.037-1.108-2.715,5.021-4.177,7.953a239.384,239.384,0,0,0-10.51,24.12q-5.429,14.994-9.327,29.073,11.623-2.933,20.533-4.563l0.627-.065q5.012-18.579,6.96-24.445l1.879-5.411q14.339,0,24.57-3h0Zm18.654,23.207-5.568.522-4.872,15.71q22.689-2.737,29.094-3.194,3.968-.2,16.983-0.2l5.15-15.188-8.63.26q-4.386.261-6.2,0.326,1.809-6.649,3.828-12.842Q190,129.9,193.2,122.528a95.005,95.005,0,0,1,4.176-9l-4.8-2.478q6.195-.2,16.914-0.2l5.15-15.189q-10.511.2-24.361,1.173-13.224.978-21.994,1.695l-4.872,15.645q12.32-1.627,18.375-2.542-3.829,7.041-5.568,10.886a244.562,244.562,0,0,0-10.58,24.185q-2.158,6.258-2.784,8.279l-1.949,5.932q-3.9.261-6.334,0.391h0ZM231,122.4q3.341-6.845,4.176-8.214l-6.194-2.933a56.04,56.04,0,0,1,12.111-1.565H241.3a23.885,23.885,0,0,1,7.448,1.565q4.105,1.3,4.107,11.277,0,9.844-9.4,19.035-11.693,11.214-25.614,14.276L228.768,128q1.6-3.975,2.227-5.606h0Zm39.535-3.259a15.908,15.908,0,0,0,.487-3.977q0-11.08-11.693-15.645a42.7,42.7,0,0,0-9.675-2.8q-1.185-.2-9.466-0.782-2.994-.26-5.36-0.261a181.179,181.179,0,0,0-24.778,2.021l4.106,17.861q3.132-1.5,5.012-2.607a153.145,153.145,0,0,0-8.562,17.079q-6.125,16.232-9.048,24.446-5.986,16.493-7.378,20.143,8.838-.391,18.723-1.63l4.177-1.239q48.72-14.535,53.455-52.606h0Zm33.479-22.295q-16.078.848-27.633,1.695l-4.941,15.645q5.149-.586,11.066-1.173-2.784,4.954-5.011,9.517-5.847,12.192-10.44,24.185-2.715,7.172-6.195,18.514-2.923,9.777-2.923,10.5v0.195q23.8-3.649,36.054-3.65h11.972l5.289-15.059q-19.28.849-28.954,1.369,3.062-10.951,5.637-18.057l23.665-.782,5.082-13.624-24.014.847q1.113-2.542,2.019-4.433,3.27-7.3,4.107-9l-3.481-1.891q10.163-.781,28.19-0.782h6.4l5.151-15.189q-21.44.652-31.043,1.173h0Zm81.644,18.318q0-11.08-11.693-15.645a42.7,42.7,0,0,0-9.675-2.8q-1.185-.2-9.466-0.782-2.994-.26-5.359-0.261a181.18,181.18,0,0,0-24.779,2.021l4.106,17.861q1.74-.39,4.037-1.108-2.714,5.021-4.176,7.953a239.194,239.194,0,0,0-10.51,24.12q-5.428,14.994-9.327,29.073,11.624-2.933,20.533-4.563l0.627-.065q5.012-18.579,6.96-24.445l1.879-5.411,2.854,2.216a147.773,147.773,0,0,1,22.134,30.9l19.21-6.518a169.74,169.74,0,0,0-21.646-26.727q20.322-4.433,23.8-21.838a20.939,20.939,0,0,0,.487-3.977h0Zm-24.848,10.691a41.277,41.277,0,0,1-12.6,2.021l-4.8.13q2.088-5.28,2.227-5.606a71.979,71.979,0,0,1,4.177-8.214l-3.968-1.89a44.832,44.832,0,0,1,9.327-1.695h1.462a17.532,17.532,0,0,1,5.638.652q5.914,2.02,5.916,6.193,0,5.671-7.378,8.409h0Zm71.621,23.6,54.221-1.956,5.5-14.341-53.525,1.956ZM640.609,93.52q-1.461.261-8.422,1.825A39.13,39.13,0,0,0,622.3,98.67a64.391,64.391,0,0,0-11.833,7.822q-15.452,10.951-26.24,32.007-0.349-9.907-4.385-23.858-2.785-9.713-6.4-21.252l-20.463,4.3q0.208,0.782,2.018,5.541a17.107,17.107,0,0,1,1.462,5.41,4.97,4.97,0,0,1-.348,1.565q-5.5,9.387-8.492,15.645a239.659,239.659,0,0,0-10.51,24.185q-4.593,13.1-8.282,25.879l21.089-4.889a67.844,67.844,0,0,1,5.986-20.99l7.378-16.428q0.836,0,1.949,7.3,2.923,18.515,2.923,29.726a20.033,20.033,0,0,1-.208,3.39l21.089-4.824q5.151-16.1,10.58-24.706,14.547-23.012,21.647-25.358-3.69,9.453-5.5,15.254-3.967,12.386-5.708,17.274-5.707,16.428-8.422,25.88l25.545-6.519q1.669-8.8,3.9-17.8l3.758-15.254q2.574-10.3,2.923-11.538L645.9,93q-2.367.131-5.29,0.522h0Zm44.546,22.49q0,17.6-3.2,24.184l-2.575-1.89-11.345.195,5.011-7.952q9.119-14.341,11.972-18.123a29.417,29.417,0,0,1,.139,3.586h0Zm-14.268,58.017,21.089-4.824a97.052,97.052,0,0,0,2.158-10.1q2.574-14.992,3.341-17.014a142.23,142.23,0,0,0,2.158-25.554q0-6.975-.488-14.537l-0.487-6.649q-9.537.457-14.408,0.587a227.976,227.976,0,0,0-16.635,19.556q-15.382,20.013-22.551,33.637l-5.081,9.648q-7.308,13.886-8.213,17.144l21.089-4.889A88.215,88.215,0,0,1,662.4,150.82l16.914-.782q-6.2,17.275-8.422,23.989h0Zm53.524-71.055a17.1,17.1,0,0,1,1.462,5.411,4.971,4.971,0,0,1-.348,1.564q-5.429,9.387-8.492,15.645a239.659,239.659,0,0,0-10.51,24.185q-4.593,13.1-8.282,25.88l21.089-4.889a69.393,69.393,0,0,1,6.056-20.991l7.308-16.427q0.836,0,1.949,7.3,2.991,18.515,2.993,29.725a15.115,15.115,0,0,1-.279,3.39l21.16-4.824q4.453-14.406,6.055-19.165,5.777-17.86,8.7-24.185Q781.555,108.123,789,95.41q-8.214.457-14.477,1.173l-2.3.2q-12.321,20.862-15.94,28.813l-2.227,5.085q-2.158,4.826-2.506,4.824a338.441,338.441,0,0,0-8.7-42.372l-20.463,4.3q0.208,0.782,2.018,5.541h0Z"/>
</svg>
