<svg xmlns="http://www.w3.org/2000/svg" width="2377" height="841" viewBox="0 0 2377 841">
  <defs>
    <style>
      .cls-1 {
        fill-rule: evenodd;
      }
    </style>
  </defs>
  <path id="Color_Fill_2" data-name="Color Fill 2" class="cls-1" d="M323.789,245.267q-36.956,10.193-55.342,21.893-23.892,15.478-23.89,50.581,0,16.421,12.89,38.879,7.218,12.646,10.14,17.364,5.327,11.324,5.328,20.383v1.887q0,17.933-28.53,28.688a125.538,125.538,0,0,1-27.156,6.605l9.625,56.432q39.872-10.944,57.749-24.158,33-23.967,35.749-58.13v-3.775q0-13.774-9.625-38.5-1.546-3.772-12.031-20.383-7.908-12.456-7.906-20.76a17.148,17.148,0,0,1,2.922-9.437Q302.3,300,322.586,294.715a101.681,101.681,0,0,1,19.421-2.264Zm123.919,91.725q-12.722,5.286-31.109,5.851l-11.859.377q5.156-15.288,5.5-16.231a223.725,223.725,0,0,1,10.312-23.781l-9.8-5.473q14.438-4.53,23.031-4.907H437.4q9.624,0,13.922,1.887,14.605,5.853,14.609,17.93,0,16.421-18.218,24.347h0Zm6.359,35.482q47.089-16.606,53.8-54.922a70.6,70.6,0,0,0,1.2-11.513q0-32.082-28.874-45.3a93.863,93.863,0,0,0-23.89-8.115q-2.925-.567-23.374-2.265a132.328,132.328,0,0,0-13.234-.755q-25.781,0-61.186,5.851l10.14,51.713q4.295-1.133,9.969-3.209-6.7,14.536-10.313,23.026-17.7,42.465-25.952,69.831Q328.946,440.232,319.32,481q28.7-8.493,50.7-13.211l1.547-.189q12.375-53.789,17.187-70.775l4.64-15.665q35.4,0,60.671-8.681h0Zm46.061,67.189-13.75,1.51-12.031,45.484q56.029-7.926,71.842-9.248,9.8-.566,41.937-0.566l12.718-43.975-21.312.755q-10.827.757-15.3,0.944,4.467-19.251,9.452-37.181,13.922-48.693,21.828-70.02,6.188-17.361,10.312-26.045l-11.859-7.172q15.3-.566,41.765-0.566l12.718-43.975q-25.953.567-60.155,3.4-32.657,2.832-54.311,4.907l-12.03,45.3q30.42-4.715,45.373-7.36-9.455,20.383-13.749,31.518-17.877,42.846-26.125,70.02-5.329,18.118-6.874,23.97l-4.813,17.174q-9.627.758-15.64,1.133h0ZM688.842,326.989q8.249-19.816,10.312-23.781l-15.3-8.493q11-3.582,29.906-4.529h0.515q7.219,0,18.391,4.529,10.139,3.779,10.14,32.651,0,28.5-23.2,55.111-28.874,32.463-63.248,41.332l26.984-80.589q3.951-11.51,5.5-16.231h0Zm97.622-9.437a53.612,53.612,0,0,0,1.2-11.513q0-32.082-28.874-45.3a93.876,93.876,0,0,0-23.89-8.115q-2.925-.567-23.375-2.265a132.312,132.312,0,0,0-13.234-.755q-25.78,0-61.185,5.851l10.14,51.713q7.734-4.34,12.375-7.549-14.611,30.389-21.14,49.448-15.126,46.993-22.344,70.775-14.783,47.751-18.218,58.318,21.825-1.132,46.233-4.718l10.313-3.586q120.306-42.084,132-152.308h0Zm82.67-64.547q-39.7,2.456-68.233,4.907l-12.2,45.3q12.717-1.7,27.328-3.4-6.876,14.346-12.375,27.555-14.437,35.3-25.781,70.02-6.7,20.764-15.3,53.6-7.218,28.31-7.219,30.386v0.566q58.781-10.568,89.029-10.569h29.562l13.062-43.6q-47.61,2.454-71.5,3.963,7.562-31.707,13.922-52.279l58.435-2.265,12.547-39.445L841.119,340.2q2.747-7.36,4.984-12.834,8.076-21.135,10.14-26.045l-8.593-5.473q25.092-2.265,69.607-2.265h15.812l12.719-43.975q-52.939,1.888-76.654,3.4h0Zm201.606,53.034q0-32.082-28.88-45.3a93.863,93.863,0,0,0-23.89-8.115q-2.925-.567-23.371-2.265a132.328,132.328,0,0,0-13.234-.755q-25.781,0-61.186,5.851l10.14,51.713q4.295-1.133,9.969-3.209-6.7,14.536-10.312,23.026-17.7,42.465-25.953,69.831Q890.618,440.232,880.993,481q28.7-8.493,50.7-13.211l1.547-.189q12.375-53.789,17.187-70.775l4.641-15.665,7.046,6.417q34.2,43.788,54.655,89.46l47.44-18.873q-21.315-38.878-53.46-77.381,50.19-12.832,58.78-63.226a70.727,70.727,0,0,0,1.21-11.513h0Zm-61.36,30.953q-12.72,5.286-31.109,5.851l-11.859.377q5.157-15.288,5.5-16.231a223.931,223.931,0,0,1,10.312-23.781l-9.8-5.473q14.436-4.53,23.03-4.907h3.61q9.618,0,13.922,1.887,14.61,5.853,14.61,17.93,0,16.421-18.22,24.347h0Zm176.85,68.321,133.89-5.662,13.58-41.521-132.17,5.662ZM1700.3,243.38q-3.615.756-20.8,5.285a87.219,87.219,0,0,0-24.4,9.625,159.435,159.435,0,0,0-29.22,22.648q-38.16,31.707-64.8,92.668-0.855-28.686-10.82-69.076-6.885-28.12-15.82-61.527l-50.53,12.456q0.525,2.265,4.99,16.042,3.6,10.758,3.61,15.665a16.666,16.666,0,0,1-.86,4.53q-13.575,27.177-20.97,45.3-17.19,41.147-25.95,70.02-11.34,37.935-20.46,74.927l52.08-14.155q2.4-28.5,14.78-60.772l18.22-47.561q2.07,0,4.81,21.138,7.23,53.6,7.22,86.063a68.433,68.433,0,0,1-.51,9.814l52.07-13.966q12.72-46.615,26.13-71.53,35.91-66.623,53.45-73.418-9.12,27.368-13.58,44.164-9.8,35.861-14.09,50.014-14.1,47.56-20.8,74.927l63.08-18.873q4.125-25.479,9.62-51.524l9.28-44.164q6.36-29.819,7.22-33.406l20.11-96.82q-5.85.381-13.06,1.51h0Zm110,65.113q0,50.958-7.91,70.02l-6.36-5.473-28.01.566,12.37-23.025q22.515-41.519,29.56-52.468a98.269,98.269,0,0,1,.35,10.38h0Zm-35.24,167.973,52.08-13.966q2.745-11.325,5.33-29.254,6.345-43.407,8.25-49.26A481.225,481.225,0,0,0,1846.04,310q0-20.193-1.2-42.088l-1.2-19.25q-23.55,1.321-35.58,1.7a646,646,0,0,0-41.08,56.62Q1729,364.927,1711.3,404.37L1698.75,432.3q-18.045,40.2-20.28,49.637l52.08-14.155q10.65-36.047,23.54-58.507l41.77-2.265q-15.3,50.016-20.8,69.454h0Zm132.17-205.72q3.615,10.758,3.61,15.665a16.666,16.666,0,0,1-.86,4.53q-13.41,27.177-20.97,45.3-17.19,41.147-25.95,70.02-11.34,37.935-20.45,74.927l52.07-14.155q2.58-28.5,14.96-60.772l18.04-47.561q2.07,0,4.82,21.138,7.38,53.6,7.39,86.063a51.662,51.662,0,0,1-.69,9.814l52.25-13.966q10.995-41.709,14.95-55.488,14.265-51.709,21.48-70.02,20.46-50.579,38.85-87.384-20.3,1.323-35.75,3.4l-5.67.567q-30.435,60.4-39.36,83.42l-5.5,14.721q-5.34,13.969-6.19,13.966-6.54-57.186-21.48-122.676L1902.25,254.7q0.51,2.265,4.98,16.042h0Z"/>
</svg>
